<svg width="512" height="512" viewBox="0 0 512 512" fill="none" xmlns="http://www.w3.org/2000/svg">
<g id="Frame 1">
<rect width="512" height="512" fill="white"/>
<mask id="mask0_1_3" style="mask-type:alpha" maskUnits="userSpaceOnUse" x="5" y="5" width="501" height="502">
<ellipse id="Ellipse 5" cx="255.5" cy="256" rx="250.5" ry="251" fill="#D9D9D9"/>
</mask>
<g mask="url(#mask0_1_3)">
<ellipse id="dot 4" cx="369.5" cy="79" rx="29.5" ry="29" fill="black"/>
<circle id="dot 3" cx="385" cy="307" r="29" fill="black"/>
<ellipse id="dot 2" cx="94" cy="232.5" rx="29" ry="29.5" fill="black"/>
<ellipse id="dot 1" cx="137" cy="430.5" rx="29" ry="29.5" fill="black"/>
<path id="Rectangle 1" d="M296.985 110.765C306.358 101.393 321.554 101.393 330.927 110.765L337.219 117.058C346.592 126.43 346.592 141.626 337.219 150.999L42.0277 446.19L1.79404 405.957L296.985 110.765Z" fill="black"/>
<path id="Rectangle 2" d="M212.322 396.112C202.949 405.485 187.753 405.485 178.381 396.112L172.088 389.819C162.716 380.447 162.716 365.251 172.088 355.878L467.28 60.687L507.513 100.921L212.322 396.112Z" fill="black"/>
<path id="Rectangle 3" d="M315.49 336.722C324.863 327.349 340.059 327.349 349.431 336.722L355.724 343.014C365.096 352.387 365.096 367.583 355.724 376.955L204.377 528.302L164.144 488.068L315.49 336.722Z" fill="black"/>
<path id="Rectangle 4" d="M455.525 273.415C446.153 282.788 430.957 282.788 421.584 273.415L415.292 267.122C405.919 257.75 405.919 242.554 415.292 233.181L491.909 156.564L532.143 196.797L455.525 273.415Z" fill="black"/>
<path id="Rectangle 5" d="M21.016 267.716C30.5375 258.495 45.7315 258.739 54.9528 268.26L61.1437 274.653C70.3649 284.174 70.1215 299.368 60.5999 308.589L18.6582 349.208L-20.9257 308.335L21.016 267.716Z" fill="black"/>
<path id="Rectangle 4_2" d="M164.739 202.045C155.366 211.418 140.17 211.418 130.798 202.045L124.505 195.753C115.132 186.38 115.133 171.184 124.505 161.811L304.317 -18L344.55 22.2337L164.739 202.045Z" fill="black"/>
<path id="top vector" d="M12 235L230 14C298 -66.5 104.47 -8.40422 48 48.5C-8.46988 105.404 -198 446.5 12 235Z" fill="black"/>
<path id="bottom vector" d="M498 281L280 501C137.5 645 428.53 544.647 485 488C541.47 431.353 630.5 143 498 281Z" fill="black"/>
</g>
</g>
</svg>
