<svg width="512" height="512" viewBox="0 0 512 512" fill="none" xmlns="http://www.w3.org/2000/svg">
<g id="Frame">
<mask id="mask0_1_3" style="mask-type:alpha" maskUnits="userSpaceOnUse" x="5" y="5" width="501" height="502">
<ellipse id="Ellipse 5" cx="255.5" cy="256" rx="250.5" ry="251" fill="white"/>
</mask>
<g mask="url(#mask0_1_3)">
<ellipse id="dot 4" cx="365" cy="74.5763" rx="25" ry="24.5763" fill="#EE425A"/>
<circle id="dot 3" cx="386" cy="303" r="25" fill="#EE425A"/>
<ellipse id="dot 2" cx="90" cy="228.431" rx="25" ry="25.431" fill="#EE425A"/>
<ellipse id="dot 1" cx="140" cy="428.431" rx="25" ry="25.431" fill="#EE425A"/>
<path id="Rectangle 1" d="M299.814 107.937C307.624 100.126 320.288 100.126 328.098 107.937V107.937C335.909 115.747 335.909 128.411 328.098 136.221L30.0783 434.241L1.79404 405.957L299.814 107.937Z" fill="#4EB648"/>
<path id="Rectangle 2" d="M209.494 398.94C201.683 406.751 189.02 406.751 181.209 398.94V398.94C173.399 391.13 173.399 378.467 181.209 370.656L479.229 72.6364L507.513 100.921L209.494 398.94Z" fill="#FFCB00"/>
<path id="Rectangle 3" d="M318.319 333.893C326.129 326.083 338.792 326.083 346.603 333.893V333.893C354.413 341.704 354.413 354.367 346.603 362.178L192.428 516.352L164.144 488.068L318.319 333.893Z" fill="#4EB648"/>
<path id="Rectangle 4" d="M452.697 276.243C444.886 284.054 432.223 284.054 424.413 276.243V276.243C416.602 268.433 416.602 255.77 424.413 247.959L503.859 168.513L532.143 196.797L452.697 276.243Z" fill="#4EB648"/>
<path id="Rectangle 5" d="M23.8894 264.934C31.824 257.249 44.4857 257.452 52.17 265.387V265.387C59.8544 273.321 59.6515 285.983 51.7169 293.667L6.90182 337.069L-20.9257 308.335L23.8894 264.934Z" fill="#FFCB00"/>
<path id="Rectangle 4_2" d="M153.518 196.482C145.708 204.292 133.045 204.292 125.234 196.482V196.482C117.424 188.671 117.424 176.008 125.234 168.197L307.874 -14.4425L336.158 13.8417L153.518 196.482Z" fill="#FFCB00"/>
<path id="top vector" d="M12 235L230 14C298 -66.5 104.47 -8.40422 48 48.5C-8.46988 105.404 -198 446.5 12 235Z" fill="#EE425A"/>
<path id="bottom vector" d="M498 281L280 501C137.5 645 428.53 544.647 485 488C541.47 431.353 630.5 143 498 281Z" fill="#EE425A"/>
</g>
</g>
</svg>
