<svg stroke="currentColor" fill="currentColor" stroke-width="0" version="1.2" baseProfile="tiny" viewBox="0 0 24 48"
    height="48px" width="24px">
    <path class="arrow-up-sort" d=" M18.2 13.3l-6.2-6.3-6.2 6.3c-.2.2-.3.5-.3.7s.1.5.3.7c.2.2.4.3.7.3h11c.3 0
    .5-.1.7-.3.2-.2.3-.5.3-.7s-.1-.5-.3-.7z">
    </path>
    <path class="arrow-down-sort"
        d="M5.8 9.7l6.2 6.3 6.2-6.3c.2-.2.3-.5.3-.7s-.1-.5-.3-.7c-.2-.2-.4-.3-.7-.3h-11c-.3 0-.5.1-.7.3-.2.2-.3.4-.3.7s.1.5.3.7z">
    </path>
</svg>