<svg className="bg-svg" width="3910" height="814" viewBox="0 0 3910 814" >
<g id="Frame1" clip-path="url(#clip0_1_2)" filter="url(#filter0_d_1_2)">
<rect width="3910" height="814" transform="translate(4)" fill="url(#paint0_linear_1_2)"/>
<g id="star1">
<path id="Rectangle 1" d="M2458.04 119L2459.04 125H2457.03L2457.53 122L2458.04 119Z" fill="#D9D9D9"/>
<path id="Rectangle 3" d="M2464.07 125L2458.04 126L2458.04 124L2461.06 124.5L2464.07 125Z" fill="#D9D9D9"/>
<path id="Rectangle 2" d="M2458.04 131L2457.03 125L2459.04 125L2458.54 128L2458.04 131Z" fill="#D9D9D9"/>
<path id="Rectangle 4" d="M2452 125L2458.04 124L2458.04 126L2455.02 125.5L2452 125Z" fill="#D9D9D9"/>
</g>
<g id="star1_2">
<path id="Rectangle 1_2" d="M3314.04 119L3315.04 125H3313.03L3313.53 122L3314.04 119Z" fill="#D9D9D9"/>
<path id="Rectangle 3_2" d="M3320.07 125L3314.04 126L3314.04 124L3317.06 124.5L3320.07 125Z" fill="#D9D9D9"/>
<path id="Rectangle 2_2" d="M3314.04 131L3313.03 125L3315.04 125L3314.54 128L3314.04 131Z" fill="#D9D9D9"/>
<path id="Rectangle 4_2" d="M3308 125L3314.04 124L3314.04 126L3311.02 125.5L3308 125Z" fill="#D9D9D9"/>
</g>
<g id="star1_3">
<path id="Rectangle 1_3" d="M1590.04 119L1591.04 125H1589.03L1589.53 122L1590.04 119Z" fill="#D9D9D9"/>
<path id="Rectangle 3_3" d="M1596.07 125L1590.04 126L1590.04 124L1593.06 124.5L1596.07 125Z" fill="#D9D9D9"/>
<path id="Rectangle 2_3" d="M1590.04 131L1589.03 125L1591.04 125L1590.54 128L1590.04 131Z" fill="#D9D9D9"/>
<path id="Rectangle 4_3" d="M1584 125L1590.04 124L1590.04 126L1587.02 125.5L1584 125Z" fill="#D9D9D9"/>
</g>
<g id="star2">
<path id="Rectangle 1_4" d="M60.0373 266L60.7081 270H59.3665L59.7019 268L60.0373 266Z" fill="#D9D9D9"/>
<path id="Rectangle 3_4" d="M64.0621 270L60.0373 270.667L60.0373 269.333L62.0497 269.667L64.0621 270Z" fill="#D9D9D9"/>
<path id="Rectangle 2_4" d="M60.0373 274L59.3665 270L60.7081 270L60.3727 272L60.0373 274Z" fill="#D9D9D9"/>
<path id="Rectangle 4_4" d="M56.0124 270L60.0373 269.333L60.0373 270.667L58.0248 270.333L56.0124 270Z" fill="#D9D9D9"/>
</g>
<g id="star2_2">
<path id="Rectangle 1_5" d="M239.037 588L239.708 592H238.366L238.702 590L239.037 588Z" fill="#D9D9D9"/>
<path id="Rectangle 3_5" d="M243.062 592L239.037 592.667L239.037 591.333L241.05 591.667L243.062 592Z" fill="#D9D9D9"/>
<path id="Rectangle 2_5" d="M239.037 596L238.366 592L239.708 592L239.373 594L239.037 596Z" fill="#D9D9D9"/>
<path id="Rectangle 4_5" d="M235.012 592L239.037 591.333L239.037 592.667L237.025 592.333L235.012 592Z" fill="#D9D9D9"/>
</g>
<g id="star2_3">
<path id="Rectangle 1_6" d="M2640.04 266L2640.71 270H2639.37L2639.7 268L2640.04 266Z" fill="#D9D9D9"/>
<path id="Rectangle 3_6" d="M2644.06 270L2640.04 270.667L2640.04 269.333L2642.05 269.667L2644.06 270Z" fill="#D9D9D9"/>
<path id="Rectangle 2_6" d="M2640.04 274L2639.37 270L2640.71 270L2640.37 272L2640.04 274Z" fill="#D9D9D9"/>
<path id="Rectangle 4_6" d="M2636.01 270L2640.04 269.333L2640.04 270.667L2638.02 270.333L2636.01 270Z" fill="#D9D9D9"/>
</g>
<g id="star2_4">
<path id="Rectangle 1_7" d="M2819.04 588L2819.71 592H2818.37L2818.7 590L2819.04 588Z" fill="#D9D9D9"/>
<path id="Rectangle 3_7" d="M2823.06 592L2819.04 592.667L2819.04 591.333L2821.05 591.667L2823.06 592Z" fill="#D9D9D9"/>
<path id="Rectangle 2_7" d="M2819.04 596L2818.37 592L2819.71 592L2819.37 594L2819.04 596Z" fill="#D9D9D9"/>
<path id="Rectangle 4_7" d="M2815.01 592L2819.04 591.333L2819.04 592.667L2817.02 592.333L2815.01 592Z" fill="#D9D9D9"/>
</g>
<g id="star2_5">
<path id="Rectangle 1_8" d="M916.037 266L916.708 270H915.367L915.702 268L916.037 266Z" fill="#D9D9D9"/>
<path id="Rectangle 3_8" d="M920.062 270L916.037 270.667L916.037 269.333L918.05 269.667L920.062 270Z" fill="#D9D9D9"/>
<path id="Rectangle 2_8" d="M916.037 274L915.367 270L916.708 270L916.373 272L916.037 274Z" fill="#D9D9D9"/>
<path id="Rectangle 4_8" d="M912.012 270L916.037 269.333L916.037 270.667L914.025 270.333L912.012 270Z" fill="#D9D9D9"/>
</g>
<g id="star2_6">
<path id="Rectangle 1_9" d="M1095.04 588L1095.71 592H1094.37L1094.7 590L1095.04 588Z" fill="#D9D9D9"/>
<path id="Rectangle 3_9" d="M1099.06 592L1095.04 592.667L1095.04 591.333L1097.05 591.667L1099.06 592Z" fill="#D9D9D9"/>
<path id="Rectangle 2_9" d="M1095.04 596L1094.37 592L1095.71 592L1095.37 594L1095.04 596Z" fill="#D9D9D9"/>
<path id="Rectangle 4_9" d="M1091.01 592L1095.04 591.333L1095.04 592.667L1093.02 592.333L1091.01 592Z" fill="#D9D9D9"/>
</g>
<g id="star2_7">
<path id="Rectangle 1_10" d="M3496.04 266L3496.71 270H3495.37L3495.7 268L3496.04 266Z" fill="#D9D9D9"/>
<path id="Rectangle 3_10" d="M3500.06 270L3496.04 270.667L3496.04 269.333L3498.05 269.667L3500.06 270Z" fill="#D9D9D9"/>
<path id="Rectangle 2_10" d="M3496.04 274L3495.37 270L3496.71 270L3496.37 272L3496.04 274Z" fill="#D9D9D9"/>
<path id="Rectangle 4_10" d="M3492.01 270L3496.04 269.333L3496.04 270.667L3494.02 270.333L3492.01 270Z" fill="#D9D9D9"/>
</g>
<g id="star2_8">
<path id="Rectangle 1_11" d="M3675.04 588L3675.71 592H3674.37L3674.7 590L3675.04 588Z" fill="#D9D9D9"/>
<path id="Rectangle 3_11" d="M3679.06 592L3675.04 592.667L3675.04 591.333L3677.05 591.667L3679.06 592Z" fill="#D9D9D9"/>
<path id="Rectangle 2_11" d="M3675.04 596L3674.37 592L3675.71 592L3675.37 594L3675.04 596Z" fill="#D9D9D9"/>
<path id="Rectangle 4_11" d="M3671.01 592L3675.04 591.333L3675.04 592.667L3673.02 592.333L3671.01 592Z" fill="#D9D9D9"/>
</g>
<g id="star2_9">
<path id="Rectangle 1_12" d="M1772.04 266L1772.71 270H1771.37L1771.7 268L1772.04 266Z" fill="#D9D9D9"/>
<path id="Rectangle 3_12" d="M1776.06 270L1772.04 270.667L1772.04 269.333L1774.05 269.667L1776.06 270Z" fill="#D9D9D9"/>
<path id="Rectangle 2_12" d="M1772.04 274L1771.37 270L1772.71 270L1772.37 272L1772.04 274Z" fill="#D9D9D9"/>
<path id="Rectangle 4_12" d="M1768.01 270L1772.04 269.333L1772.04 270.667L1770.02 270.333L1768.01 270Z" fill="#D9D9D9"/>
</g>
<g id="star2_10">
<path id="Rectangle 1_13" d="M2393.02 368L2393.7 372H2392.35L2392.69 370L2393.02 368Z" fill="#D9D9D9"/>
<path id="Rectangle 3_13" d="M2397.05 372L2393.02 372.667L2393.02 371.333L2395.04 371.667L2397.05 372Z" fill="#D9D9D9"/>
<path id="Rectangle 2_13" d="M2393.02 376L2392.35 372L2393.7 372L2393.36 374L2393.02 376Z" fill="#D9D9D9"/>
<path id="Rectangle 4_13" d="M2389 372L2393.02 371.333L2393.02 372.667L2391.01 372.333L2389 372Z" fill="#D9D9D9"/>
</g>
<g id="star2_11">
<path id="Rectangle 1_14" d="M1951.04 588L1951.71 592H1950.37L1950.7 590L1951.04 588Z" fill="#D9D9D9"/>
<path id="Rectangle 3_14" d="M1955.06 592L1951.04 592.667L1951.04 591.333L1953.05 591.667L1955.06 592Z" fill="#D9D9D9"/>
<path id="Rectangle 2_14" d="M1951.04 596L1950.37 592L1951.71 592L1951.37 594L1951.04 596Z" fill="#D9D9D9"/>
<path id="Rectangle 4_14" d="M1947.01 592L1951.04 591.333L1951.04 592.667L1949.02 592.333L1947.01 592Z" fill="#D9D9D9"/>
</g>
<g id="star3">
<path id="Rectangle 1_15" d="M272.025 174L272.696 178H271.354L271.689 176L272.025 174Z" fill="#D9D9D9"/>
<path id="Rectangle 3_15" d="M276.05 178L272.025 178.667L272.025 177.333L274.037 177.667L276.05 178Z" fill="#D9D9D9"/>
<path id="Rectangle 2_15" d="M272.025 182L271.354 178L272.696 178L272.36 180L272.025 182Z" fill="#D9D9D9"/>
<path id="Rectangle 4_15" d="M268 178L272.025 177.333L272.025 178.667L270.012 178.333L268 178Z" fill="#D9D9D9"/>
</g>
<g id="star3_2">
<path id="Rectangle 1_16" d="M2852.02 174L2852.7 178H2851.35L2851.69 176L2852.02 174Z" fill="#D9D9D9"/>
<path id="Rectangle 3_16" d="M2856.05 178L2852.02 178.667L2852.02 177.333L2854.04 177.667L2856.05 178Z" fill="#D9D9D9"/>
<path id="Rectangle 2_16" d="M2852.02 182L2851.35 178L2852.7 178L2852.36 180L2852.02 182Z" fill="#D9D9D9"/>
<path id="Rectangle 4_16" d="M2848 178L2852.02 177.333L2852.02 178.667L2850.01 178.333L2848 178Z" fill="#D9D9D9"/>
</g>
<g id="star3_3">
<path id="Rectangle 1_17" d="M1128.02 174L1128.7 178H1127.35L1127.69 176L1128.02 174Z" fill="#D9D9D9"/>
<path id="Rectangle 3_17" d="M1132.05 178L1128.02 178.667L1128.02 177.333L1130.04 177.667L1132.05 178Z" fill="#D9D9D9"/>
<path id="Rectangle 2_17" d="M1128.02 182L1127.35 178L1128.7 178L1128.36 180L1128.02 182Z" fill="#D9D9D9"/>
<path id="Rectangle 4_17" d="M1124 178L1128.02 177.333L1128.02 178.667L1126.01 178.333L1124 178Z" fill="#D9D9D9"/>
</g>
<g id="star3_4">
<path id="Rectangle 1_18" d="M1984.02 174L1984.7 178H1983.35L1983.69 176L1984.02 174Z" fill="#D9D9D9"/>
<path id="Rectangle 3_18" d="M1988.05 178L1984.02 178.667L1984.02 177.333L1986.04 177.667L1988.05 178Z" fill="#D9D9D9"/>
<path id="Rectangle 2_18" d="M1984.02 182L1983.35 178L1984.7 178L1984.36 180L1984.02 182Z" fill="#D9D9D9"/>
<path id="Rectangle 4_18" d="M1980 178L1984.02 177.333L1984.02 178.667L1982.01 178.333L1980 178Z" fill="#D9D9D9"/>
</g>
<g id="star3_5">
<path id="Rectangle 1_19" d="M2129.02 497L2129.7 501H2128.35L2128.69 499L2129.02 497Z" fill="#D9D9D9"/>
<path id="Rectangle 3_19" d="M2133.05 501L2129.02 501.667L2129.02 500.333L2131.04 500.667L2133.05 501Z" fill="#D9D9D9"/>
<path id="Rectangle 2_19" d="M2129.02 505L2128.35 501L2129.7 501L2129.36 503L2129.02 505Z" fill="#D9D9D9"/>
<path id="Rectangle 4_19" d="M2125 501L2129.02 500.333L2129.02 501.667L2127.01 501.333L2125 501Z" fill="#D9D9D9"/>
</g>
<g id="star3_6">
<path id="Rectangle 1_20" d="M3455.02 174L3455.7 178H3454.35L3454.69 176L3455.02 174Z" fill="#D9D9D9"/>
<path id="Rectangle 3_20" d="M3459.05 178L3455.02 178.667L3455.02 177.333L3457.04 177.667L3459.05 178Z" fill="#D9D9D9"/>
<path id="Rectangle 2_20" d="M3455.02 182L3454.35 178L3455.7 178L3455.36 180L3455.02 182Z" fill="#D9D9D9"/>
<path id="Rectangle 4_20" d="M3451 178L3455.02 177.333L3455.02 178.667L3453.01 178.333L3451 178Z" fill="#D9D9D9"/>
</g>
<g id="star4">
<path id="Rectangle 1_21" d="M775.025 448L775.696 452H774.354L774.689 450L775.025 448Z" fill="#D9D9D9"/>
<path id="Rectangle 3_21" d="M779.05 452L775.025 452.667L775.025 451.333L777.037 451.667L779.05 452Z" fill="#D9D9D9"/>
<path id="Rectangle 2_21" d="M775.025 456L774.354 452L775.696 452L775.36 454L775.025 456Z" fill="#D9D9D9"/>
<path id="Rectangle 4_21" d="M771 452L775.025 451.333L775.025 452.667L773.012 452.333L771 452Z" fill="#D9D9D9"/>
</g>
<g id="star4_2">
<path id="Rectangle 1_22" d="M611.025 770L611.696 774H610.354L610.689 772L611.025 770Z" fill="#D9D9D9"/>
<path id="Rectangle 3_22" d="M615.05 774L611.025 774.667L611.025 773.333L613.037 773.667L615.05 774Z" fill="#D9D9D9"/>
<path id="Rectangle 2_22" d="M611.025 778L610.354 774L611.696 774L611.36 776L611.025 778Z" fill="#D9D9D9"/>
<path id="Rectangle 4_22" d="M607 774L611.025 773.333L611.025 774.667L609.012 774.333L607 774Z" fill="#D9D9D9"/>
</g>
<g id="star4_3">
<path id="Rectangle 1_23" d="M3355.02 448L3355.7 452H3354.35L3354.69 450L3355.02 448Z" fill="#D9D9D9"/>
<path id="Rectangle 3_23" d="M3359.05 452L3355.02 452.667L3355.02 451.333L3357.04 451.667L3359.05 452Z" fill="#D9D9D9"/>
<path id="Rectangle 2_23" d="M3355.02 456L3354.35 452L3355.7 452L3355.36 454L3355.02 456Z" fill="#D9D9D9"/>
<path id="Rectangle 4_23" d="M3351 452L3355.02 451.333L3355.02 452.667L3353.01 452.333L3351 452Z" fill="#D9D9D9"/>
</g>
<g id="star4_4">
<path id="Rectangle 1_24" d="M3191.02 770L3191.7 774H3190.35L3190.69 772L3191.02 770Z" fill="#D9D9D9"/>
<path id="Rectangle 3_24" d="M3195.05 774L3191.02 774.667L3191.02 773.333L3193.04 773.667L3195.05 774Z" fill="#D9D9D9"/>
<path id="Rectangle 2_24" d="M3191.02 778L3190.35 774L3191.7 774L3191.36 776L3191.02 778Z" fill="#D9D9D9"/>
<path id="Rectangle 4_24" d="M3187 774L3191.02 773.333L3191.02 774.667L3189.01 774.333L3187 774Z" fill="#D9D9D9"/>
</g>
<g id="star4_5">
<path id="Rectangle 1_25" d="M1631.02 448L1631.7 452H1630.35L1630.69 450L1631.02 448Z" fill="#D9D9D9"/>
<path id="Rectangle 3_25" d="M1635.05 452L1631.02 452.667L1631.02 451.333L1633.04 451.667L1635.05 452Z" fill="#D9D9D9"/>
<path id="Rectangle 2_25" d="M1631.02 456L1630.35 452L1631.7 452L1631.36 454L1631.02 456Z" fill="#D9D9D9"/>
<path id="Rectangle 4_25" d="M1627 452L1631.02 451.333L1631.02 452.667L1629.01 452.333L1627 452Z" fill="#D9D9D9"/>
</g>
<g id="star4_6">
<path id="Rectangle 1_26" d="M1467.02 770L1467.7 774H1466.35L1466.69 772L1467.02 770Z" fill="#D9D9D9"/>
<path id="Rectangle 3_26" d="M1471.05 774L1467.02 774.667L1467.02 773.333L1469.04 773.667L1471.05 774Z" fill="#D9D9D9"/>
<path id="Rectangle 2_26" d="M1467.02 778L1466.35 774L1467.7 774L1467.36 776L1467.02 778Z" fill="#D9D9D9"/>
<path id="Rectangle 4_26" d="M1463 774L1467.02 773.333L1467.02 774.667L1465.01 774.333L1463 774Z" fill="#D9D9D9"/>
</g>
<g id="star4_7">
<path id="Rectangle 1_27" d="M2487.02 448L2487.7 452H2486.35L2486.69 450L2487.02 448Z" fill="#D9D9D9"/>
<path id="Rectangle 3_27" d="M2491.05 452L2487.02 452.667L2487.02 451.333L2489.04 451.667L2491.05 452Z" fill="#D9D9D9"/>
<path id="Rectangle 2_27" d="M2487.02 456L2486.35 452L2487.7 452L2487.36 454L2487.02 456Z" fill="#D9D9D9"/>
<path id="Rectangle 4_27" d="M2483 452L2487.02 451.333L2487.02 452.667L2485.01 452.333L2483 452Z" fill="#D9D9D9"/>
</g>
<g id="star4_8">
<path id="Rectangle 1_28" d="M2323.02 770L2323.7 774H2322.35L2322.69 772L2323.02 770Z" fill="#D9D9D9"/>
<path id="Rectangle 3_28" d="M2327.05 774L2323.02 774.667L2323.02 773.333L2325.04 773.667L2327.05 774Z" fill="#D9D9D9"/>
<path id="Rectangle 2_28" d="M2323.02 778L2322.35 774L2323.7 774L2323.36 776L2323.02 778Z" fill="#D9D9D9"/>
<path id="Rectangle 4_28" d="M2319 774L2323.02 773.333L2323.02 774.667L2321.01 774.333L2319 774Z" fill="#D9D9D9"/>
</g>
<g id="star4_9">
<path id="Rectangle 1_29" d="M3794.02 770L3794.7 774H3793.35L3793.69 772L3794.02 770Z" fill="#D9D9D9"/>
<path id="Rectangle 3_29" d="M3798.05 774L3794.02 774.667L3794.02 773.333L3796.04 773.667L3798.05 774Z" fill="#D9D9D9"/>
<path id="Rectangle 2_29" d="M3794.02 778L3793.35 774L3794.7 774L3794.36 776L3794.02 778Z" fill="#D9D9D9"/>
<path id="Rectangle 4_29" d="M3790 774L3794.02 773.333L3794.02 774.667L3792.01 774.333L3790 774Z" fill="#D9D9D9"/>
</g>
<g id="star5">
<path id="Rectangle 1_30" d="M211.025 505L211.696 509H210.354L210.689 507L211.025 505Z" fill="#D9D9D9"/>
<path id="Rectangle 3_30" d="M215.05 509L211.025 509.667L211.025 508.333L213.037 508.667L215.05 509Z" fill="#D9D9D9"/>
<path id="Rectangle 2_30" d="M211.025 513L210.354 509L211.696 509L211.36 511L211.025 513Z" fill="#D9D9D9"/>
<path id="Rectangle 4_30" d="M207 509L211.025 508.333L211.025 509.667L209.012 509.333L207 509Z" fill="#D9D9D9"/>
</g>
<g id="star5_2">
<path id="Rectangle 1_31" d="M2791.02 505L2791.7 509H2790.35L2790.69 507L2791.02 505Z" fill="#D9D9D9"/>
<path id="Rectangle 3_31" d="M2795.05 509L2791.02 509.667L2791.02 508.333L2793.04 508.667L2795.05 509Z" fill="#D9D9D9"/>
<path id="Rectangle 2_31" d="M2791.02 513L2790.35 509L2791.7 509L2791.36 511L2791.02 513Z" fill="#D9D9D9"/>
<path id="Rectangle 4_31" d="M2787 509L2791.02 508.333L2791.02 509.667L2789.01 509.333L2787 509Z" fill="#D9D9D9"/>
</g>
<g id="star5_3">
<path id="Rectangle 1_32" d="M1067.02 505L1067.7 509H1066.35L1066.69 507L1067.02 505Z" fill="#D9D9D9"/>
<path id="Rectangle 3_32" d="M1071.05 509L1067.02 509.667L1067.02 508.333L1069.04 508.667L1071.05 509Z" fill="#D9D9D9"/>
<path id="Rectangle 2_32" d="M1067.02 513L1066.35 509L1067.7 509L1067.36 511L1067.02 513Z" fill="#D9D9D9"/>
<path id="Rectangle 4_32" d="M1063 509L1067.02 508.333L1067.02 509.667L1065.01 509.333L1063 509Z" fill="#D9D9D9"/>
</g>
<g id="star5_4">
<path id="Rectangle 1_33" d="M3647.02 505L3647.7 509H3646.35L3646.69 507L3647.02 505Z" fill="#D9D9D9"/>
<path id="Rectangle 3_33" d="M3651.05 509L3647.02 509.667L3647.02 508.333L3649.04 508.667L3651.05 509Z" fill="#D9D9D9"/>
<path id="Rectangle 2_33" d="M3647.02 513L3646.35 509L3647.7 509L3647.36 511L3647.02 513Z" fill="#D9D9D9"/>
<path id="Rectangle 4_33" d="M3643 509L3647.02 508.333L3647.02 509.667L3645.01 509.333L3643 509Z" fill="#D9D9D9"/>
</g>
<g id="star6">
<path id="Rectangle 1_34" d="M71 376L73.3333 390H68.6667L69.8333 383L71 376Z" fill="#D9D9D9"/>
<path id="Rectangle 3_34" d="M85 390L71 392.333L71 387.667L78 388.833L85 390Z" fill="#D9D9D9"/>
<path id="Rectangle 2_34" d="M71 404L68.6667 390L73.3333 390L72.1667 397L71 404Z" fill="#D9D9D9"/>
<path id="Rectangle 4_34" d="M57 390L71 387.667L71 392.333L64 391.167L57 390Z" fill="#D9D9D9"/>
</g>
<g id="blink-star3">
<path id="Rectangle 1_35" d="M2487 698L2489.33 712H2484.67L2485.83 705L2487 698Z" fill="#D9D9D9"/>
<path id="Rectangle 3_35" d="M2501 712L2487 714.333L2487 709.667L2494 710.833L2501 712Z" fill="#D9D9D9"/>
<path id="Rectangle 2_35" d="M2487 726L2484.67 712L2489.33 712L2488.17 719L2487 726Z" fill="#D9D9D9"/>
<path id="Rectangle 4_35" d="M2473 712L2487 709.667L2487 714.333L2480 713.167L2473 712Z" fill="#D9D9D9"/>
</g>
<g id="star6_2">
<path id="Rectangle 1_36" d="M763 698L765.333 712H760.667L761.833 705L763 698Z" fill="#D9D9D9"/>
<path id="Rectangle 3_36" d="M777 712L763 714.333L763 709.667L770 710.833L777 712Z" fill="#D9D9D9"/>
<path id="Rectangle 2_36" d="M763 726L760.667 712L765.333 712L764.167 719L763 726Z" fill="#D9D9D9"/>
<path id="Rectangle 4_36" d="M749 712L763 709.667L763 714.333L756 713.167L749 712Z" fill="#D9D9D9"/>
</g>
<g id="star6_3">
<path id="Rectangle 1_37" d="M3507 376L3509.33 390H3504.67L3505.83 383L3507 376Z" fill="#D9D9D9"/>
<path id="Rectangle 3_37" d="M3521 390L3507 392.333L3507 387.667L3514 388.833L3521 390Z" fill="#D9D9D9"/>
<path id="Rectangle 2_37" d="M3507 404L3504.67 390L3509.33 390L3508.17 397L3507 404Z" fill="#D9D9D9"/>
<path id="Rectangle 4_37" d="M3493 390L3507 387.667L3507 392.333L3500 391.167L3493 390Z" fill="#D9D9D9"/>
</g>
<g id="star6_4">
<path id="Rectangle 1_38" d="M3343 698L3345.33 712H3340.67L3341.83 705L3343 698Z" fill="#D9D9D9"/>
<path id="Rectangle 3_38" d="M3357 712L3343 714.333L3343 709.667L3350 710.833L3357 712Z" fill="#D9D9D9"/>
<path id="Rectangle 2_38" d="M3343 726L3340.67 712L3345.33 712L3344.17 719L3343 726Z" fill="#D9D9D9"/>
<path id="Rectangle 4_38" d="M3329 712L3343 709.667L3343 714.333L3336 713.167L3329 712Z" fill="#D9D9D9"/>
</g>
<g id="blink-star2">
<path id="Rectangle 1_39" d="M1783 376L1785.33 390H1780.67L1781.83 383L1783 376Z" fill="#D9D9D9"/>
<path id="Rectangle 3_39" d="M1797 390L1783 392.333L1783 387.667L1790 388.833L1797 390Z" fill="#D9D9D9"/>
<path id="Rectangle 2_39" d="M1783 404L1780.67 390L1785.33 390L1784.17 397L1783 404Z" fill="#D9D9D9"/>
<path id="Rectangle 4_39" d="M1769 390L1783 387.667L1783 392.333L1776 391.167L1769 390Z" fill="#D9D9D9"/>
</g>
<g id="blink-star4">
<path id="Rectangle 1_40" d="M3242 543L3244.33 557H3239.67L3240.83 550L3242 543Z" fill="#D9D9D9"/>
<path id="Rectangle 3_40" d="M3256 557L3242 559.333L3242 554.667L3249 555.833L3256 557Z" fill="#D9D9D9"/>
<path id="Rectangle 2_40" d="M3242 571L3239.67 557L3244.33 557L3243.17 564L3242 571Z" fill="#D9D9D9"/>
<path id="Rectangle 4_40" d="M3228 557L3242 554.667L3242 559.333L3235 558.167L3228 557Z" fill="#D9D9D9"/>
</g>
<g id="blink-star1">
<path id="Rectangle 1_41" d="M1339 221L1341.33 235H1336.67L1337.83 228L1339 221Z" fill="#D9D9D9"/>
<path id="Rectangle 3_41" d="M1353 235L1339 237.333L1339 232.667L1346 233.833L1353 235Z" fill="#D9D9D9"/>
<path id="Rectangle 2_41" d="M1339 249L1336.67 235L1341.33 235L1340.17 242L1339 249Z" fill="#D9D9D9"/>
<path id="Rectangle 4_41" d="M1325 235L1339 232.667L1339 237.333L1332 236.167L1325 235Z" fill="#D9D9D9"/>
</g>
<g id="star7">
<path id="Rectangle 1_42" d="M2195 221L2197.33 235H2192.67L2193.83 228L2195 221Z" fill="#D9D9D9"/>
<path id="Rectangle 3_42" d="M2209 235L2195 237.333L2195 232.667L2202 233.833L2209 235Z" fill="#D9D9D9"/>
<path id="Rectangle 2_42" d="M2195 249L2192.67 235L2197.33 235L2196.17 242L2195 249Z" fill="#D9D9D9"/>
<path id="Rectangle 4_42" d="M2181 235L2195 232.667L2195 237.333L2188 236.167L2181 235Z" fill="#D9D9D9"/>
</g>
<g id="star7_2">
<path id="Rectangle 1_43" d="M2374 543L2376.33 557H2371.67L2372.83 550L2374 543Z" fill="#D9D9D9"/>
<path id="Rectangle 3_43" d="M2388 557L2374 559.333L2374 554.667L2381 555.833L2388 557Z" fill="#D9D9D9"/>
<path id="Rectangle 2_43" d="M2374 571L2371.67 557L2376.33 557L2375.17 564L2374 571Z" fill="#D9D9D9"/>
<path id="Rectangle 4_43" d="M2360 557L2374 554.667L2374 559.333L2367 558.167L2360 557Z" fill="#D9D9D9"/>
</g>
<g id="star7_3">
<path id="Rectangle 1_44" d="M3666 221L3668.33 235H3663.67L3664.83 228L3666 221Z" fill="#D9D9D9"/>
<path id="Rectangle 3_44" d="M3680 235L3666 237.333L3666 232.667L3673 233.833L3680 235Z" fill="#D9D9D9"/>
<path id="Rectangle 2_44" d="M3666 249L3663.67 235L3668.33 235L3667.17 242L3666 249Z" fill="#D9D9D9"/>
<path id="Rectangle 4_44" d="M3652 235L3666 232.667L3666 237.333L3659 236.167L3652 235Z" fill="#D9D9D9"/>
</g>
<g id="star7_4">
<path id="Rectangle 1_45" d="M3845 543L3847.33 557H3842.67L3843.83 550L3845 543Z" fill="#D9D9D9"/>
<path id="Rectangle 3_45" d="M3859 557L3845 559.333L3845 554.667L3852 555.833L3859 557Z" fill="#D9D9D9"/>
<path id="Rectangle 2_45" d="M3845 571L3842.67 557L3847.33 557L3846.17 564L3845 571Z" fill="#D9D9D9"/>
<path id="Rectangle 4_45" d="M3831 557L3845 554.667L3845 559.333L3838 558.167L3831 557Z" fill="#D9D9D9"/>
</g>
<g id="star8">
<path id="Rectangle 9" d="M428 90L429 101H427L427.5 95.5L428 90Z" fill="#D9D9D9"/>
<path id="Rectangle 10" d="M439 101L428 102L428 100L433.5 100.5L439 101Z" fill="#D9D9D9"/>
<path id="Rectangle 11" d="M428 112L427 101L429 101L428.5 106.5L428 112Z" fill="#D9D9D9"/>
<path id="Rectangle 12" d="M417 101L428 100L428 102L422.5 101.5L417 101Z" fill="#D9D9D9"/>
</g>
<g id="star8_2">
<path id="Rectangle 9_2" d="M3008 90L3009 101H3007L3007.5 95.5L3008 90Z" fill="#D9D9D9"/>
<path id="Rectangle 10_2" d="M3019 101L3008 102L3008 100L3013.5 100.5L3019 101Z" fill="#D9D9D9"/>
<path id="Rectangle 11_2" d="M3008 112L3007 101L3009 101L3008.5 106.5L3008 112Z" fill="#D9D9D9"/>
<path id="Rectangle 12_2" d="M2997 101L3008 100L3008 102L3002.5 101.5L2997 101Z" fill="#D9D9D9"/>
</g>
<g id="star8_3">
<path id="Rectangle 9_3" d="M1284 90L1285 101H1283L1283.5 95.5L1284 90Z" fill="#D9D9D9"/>
<path id="Rectangle 10_3" d="M1295 101L1284 102L1284 100L1289.5 100.5L1295 101Z" fill="#D9D9D9"/>
<path id="Rectangle 11_3" d="M1284 112L1283 101L1285 101L1284.5 106.5L1284 112Z" fill="#D9D9D9"/>
<path id="Rectangle 12_3" d="M1273 101L1284 100L1284 102L1278.5 101.5L1273 101Z" fill="#D9D9D9"/>
</g>
<g id="star8_4">
<path id="Rectangle 9_4" d="M2140 90L2141 101H2139L2139.5 95.5L2140 90Z" fill="#D9D9D9"/>
<path id="Rectangle 10_4" d="M2151 101L2140 102L2140 100L2145.5 100.5L2151 101Z" fill="#D9D9D9"/>
<path id="Rectangle 11_4" d="M2140 112L2139 101L2141 101L2140.5 106.5L2140 112Z" fill="#D9D9D9"/>
<path id="Rectangle 12_4" d="M2129 101L2140 100L2140 102L2134.5 101.5L2129 101Z" fill="#D9D9D9"/>
</g>
<g id="star8_5">
<path id="Rectangle 9_5" d="M3611 90L3612 101H3610L3610.5 95.5L3611 90Z" fill="#D9D9D9"/>
<path id="Rectangle 10_5" d="M3622 101L3611 102L3611 100L3616.5 100.5L3622 101Z" fill="#D9D9D9"/>
<path id="Rectangle 11_5" d="M3611 112L3610 101L3612 101L3611.5 106.5L3611 112Z" fill="#D9D9D9"/>
<path id="Rectangle 12_5" d="M3600 101L3611 100L3611 102L3605.5 101.5L3600 101Z" fill="#D9D9D9"/>
</g>
<g id="star9">
<path id="Rectangle 9_6" d="M651 276L652 287H650L650.5 281.5L651 276Z" fill="#D9D9D9"/>
<path id="Rectangle 10_6" d="M662 287L651 288L651 286L656.5 286.5L662 287Z" fill="#D9D9D9"/>
<path id="Rectangle 11_6" d="M651 298L650 287L652 287L651.5 292.5L651 298Z" fill="#D9D9D9"/>
<path id="Rectangle 12_6" d="M640 287L651 286L651 288L645.5 287.5L640 287Z" fill="#D9D9D9"/>
</g>
<g id="star9_2">
<path id="Rectangle 9_7" d="M830 598L831 609H829L829.5 603.5L830 598Z" fill="#D9D9D9"/>
<path id="Rectangle 10_7" d="M841 609L830 610L830 608L835.5 608.5L841 609Z" fill="#D9D9D9"/>
<path id="Rectangle 11_7" d="M830 620L829 609L831 609L830.5 614.5L830 620Z" fill="#D9D9D9"/>
<path id="Rectangle 12_7" d="M819 609L830 608L830 610L824.5 609.5L819 609Z" fill="#D9D9D9"/>
</g>
<g id="star9_3">
<path id="Rectangle 9_8" d="M3231 276L3232 287H3230L3230.5 281.5L3231 276Z" fill="#D9D9D9"/>
<path id="Rectangle 10_8" d="M3242 287L3231 288L3231 286L3236.5 286.5L3242 287Z" fill="#D9D9D9"/>
<path id="Rectangle 11_8" d="M3231 298L3230 287L3232 287L3231.5 292.5L3231 298Z" fill="#D9D9D9"/>
<path id="Rectangle 12_8" d="M3220 287L3231 286L3231 288L3225.5 287.5L3220 287Z" fill="#D9D9D9"/>
</g>
<g id="star9_4">
<path id="Rectangle 9_9" d="M3410 598L3411 609H3409L3409.5 603.5L3410 598Z" fill="#D9D9D9"/>
<path id="Rectangle 10_9" d="M3421 609L3410 610L3410 608L3415.5 608.5L3421 609Z" fill="#D9D9D9"/>
<path id="Rectangle 11_9" d="M3410 620L3409 609L3411 609L3410.5 614.5L3410 620Z" fill="#D9D9D9"/>
<path id="Rectangle 12_9" d="M3399 609L3410 608L3410 610L3404.5 609.5L3399 609Z" fill="#D9D9D9"/>
</g>
<g id="star9_5">
<path id="Rectangle 9_10" d="M1507 276L1508 287H1506L1506.5 281.5L1507 276Z" fill="#D9D9D9"/>
<path id="Rectangle 10_10" d="M1518 287L1507 288L1507 286L1512.5 286.5L1518 287Z" fill="#D9D9D9"/>
<path id="Rectangle 11_10" d="M1507 298L1506 287L1508 287L1507.5 292.5L1507 298Z" fill="#D9D9D9"/>
<path id="Rectangle 12_10" d="M1496 287L1507 286L1507 288L1501.5 287.5L1496 287Z" fill="#D9D9D9"/>
</g>
<g id="star9_6">
<path id="Rectangle 9_11" d="M1686 598L1687 609H1685L1685.5 603.5L1686 598Z" fill="#D9D9D9"/>
<path id="Rectangle 10_11" d="M1697 609L1686 610L1686 608L1691.5 608.5L1697 609Z" fill="#D9D9D9"/>
<path id="Rectangle 11_11" d="M1686 620L1685 609L1687 609L1686.5 614.5L1686 620Z" fill="#D9D9D9"/>
<path id="Rectangle 12_11" d="M1675 609L1686 608L1686 610L1680.5 609.5L1675 609Z" fill="#D9D9D9"/>
</g>
<g id="star9_7">
<path id="Rectangle 9_12" d="M2542 598L2543 609H2541L2541.5 603.5L2542 598Z" fill="#D9D9D9"/>
<path id="Rectangle 10_12" d="M2553 609L2542 610L2542 608L2547.5 608.5L2553 609Z" fill="#D9D9D9"/>
<path id="Rectangle 11_12" d="M2542 620L2541 609L2543 609L2542.5 614.5L2542 620Z" fill="#D9D9D9"/>
<path id="Rectangle 12_12" d="M2531 609L2542 608L2542 610L2536.5 609.5L2531 609Z" fill="#D9D9D9"/>
</g>
<g id="star9_8">
<path id="Rectangle 9_13" d="M3834 266L3835 277H3833L3833.5 271.5L3834 266Z" fill="#D9D9D9"/>
<path id="Rectangle 10_13" d="M3845 277L3834 278L3834 276L3839.5 276.5L3845 277Z" fill="#D9D9D9"/>
<path id="Rectangle 11_13" d="M3834 288L3833 277L3835 277L3834.5 282.5L3834 288Z" fill="#D9D9D9"/>
<path id="Rectangle 12_13" d="M3823 277L3834 276L3834 278L3828.5 277.5L3823 277Z" fill="#D9D9D9"/>
</g>
<g id="star10">
<path id="Rectangle 13" d="M19.0373 52L20.5435 60.9815H17.5311L18.2842 56.4907L19.0373 52Z" fill="#D9D9D9"/>
<path id="Rectangle 14" d="M28.0745 60.9815L19.0373 62.4784L19.0373 59.4846L23.5559 60.233L28.0745 60.9815Z" fill="#D9D9D9"/>
<path id="Rectangle 15" d="M19.0373 69.963L17.5311 60.9815L20.5435 60.9815L19.7904 65.4722L19.0373 69.963Z" fill="#D9D9D9"/>
<path id="Rectangle 16" d="M10 60.9815L19.0373 59.4846L19.0373 62.4784L14.5186 61.7299L10 60.9815Z" fill="#D9D9D9"/>
</g>
<g id="star10_2">
<path id="Rectangle 13_2" d="M2599.04 52L2600.54 60.9815H2597.53L2598.28 56.4907L2599.04 52Z" fill="#D9D9D9"/>
<path id="Rectangle 14_2" d="M2608.07 60.9815L2599.04 62.4784L2599.04 59.4846L2603.56 60.233L2608.07 60.9815Z" fill="#D9D9D9"/>
<path id="Rectangle 15_2" d="M2599.04 69.963L2597.53 60.9815L2600.54 60.9815L2599.79 65.4722L2599.04 69.963Z" fill="#D9D9D9"/>
<path id="Rectangle 16_2" d="M2590 60.9815L2599.04 59.4846L2599.04 62.4784L2594.52 61.7299L2590 60.9815Z" fill="#D9D9D9"/>
</g>
<g id="star10_3">
<path id="Rectangle 13_3" d="M875.037 52L876.543 60.9815H873.531L874.284 56.4907L875.037 52Z" fill="#D9D9D9"/>
<path id="Rectangle 14_3" d="M884.075 60.9815L875.037 62.4784L875.037 59.4846L879.556 60.233L884.075 60.9815Z" fill="#D9D9D9"/>
<path id="Rectangle 15_3" d="M875.037 69.963L873.531 60.9815L876.543 60.9815L875.79 65.4722L875.037 69.963Z" fill="#D9D9D9"/>
<path id="Rectangle 16_3" d="M866 60.9815L875.037 59.4846L875.037 62.4784L870.519 61.7299L866 60.9815Z" fill="#D9D9D9"/>
</g>
<g id="star10_4">
<path id="Rectangle 13_4" d="M3455.04 52L3456.54 60.9815H3453.53L3454.28 56.4907L3455.04 52Z" fill="#D9D9D9"/>
<path id="Rectangle 14_4" d="M3464.07 60.9815L3455.04 62.4784L3455.04 59.4846L3459.56 60.233L3464.07 60.9815Z" fill="#D9D9D9"/>
<path id="Rectangle 15_4" d="M3455.04 69.963L3453.53 60.9815L3456.54 60.9815L3455.79 65.4722L3455.04 69.963Z" fill="#D9D9D9"/>
<path id="Rectangle 16_4" d="M3446 60.9815L3455.04 59.4846L3455.04 62.4784L3450.52 61.7299L3446 60.9815Z" fill="#D9D9D9"/>
</g>
<g id="star10_5">
<path id="Rectangle 13_5" d="M1731.04 52L1732.54 60.9815H1729.53L1730.28 56.4907L1731.04 52Z" fill="#D9D9D9"/>
<path id="Rectangle 14_5" d="M1740.07 60.9815L1731.04 62.4784L1731.04 59.4846L1735.56 60.233L1740.07 60.9815Z" fill="#D9D9D9"/>
<path id="Rectangle 15_5" d="M1731.04 69.963L1729.53 60.9815L1732.54 60.9815L1731.79 65.4722L1731.04 69.963Z" fill="#D9D9D9"/>
<path id="Rectangle 16_5" d="M1722 60.9815L1731.04 59.4846L1731.04 62.4784L1726.52 61.7299L1722 60.9815Z" fill="#D9D9D9"/>
</g>
<g id="star11">
<path id="Rectangle 13_6" d="M535.037 434.093L536.531 443H533.543L534.29 438.546L535.037 434.093Z" fill="#D9D9D9"/>
<path id="Rectangle 14_6" d="M544 443L535.037 444.485L535.037 441.515L539.519 442.258L544 443Z" fill="#D9D9D9"/>
<path id="Rectangle 15_6" d="M535.037 451.907L533.543 443L536.531 443L535.784 447.454L535.037 451.907Z" fill="#D9D9D9"/>
<path id="Rectangle 16_6" d="M526.075 443L535.037 441.515L535.037 444.485L530.556 443.742L526.075 443Z" fill="#D9D9D9"/>
</g>
<g id="star11_2">
<path id="Rectangle 13_7" d="M371.037 756.093L372.531 765H369.543L370.29 760.546L371.037 756.093Z" fill="#D9D9D9"/>
<path id="Rectangle 14_7" d="M380 765L371.037 766.485L371.037 763.515L375.519 764.258L380 765Z" fill="#D9D9D9"/>
<path id="Rectangle 15_7" d="M371.037 773.907L369.543 765L372.531 765L371.784 769.454L371.037 773.907Z" fill="#D9D9D9"/>
<path id="Rectangle 16_7" d="M362.075 765L371.037 763.515L371.037 766.485L366.556 765.742L362.075 765Z" fill="#D9D9D9"/>
</g>
<g id="star11_3">
<path id="Rectangle 13_8" d="M3115.04 434.093L3116.53 443H3113.54L3114.29 438.546L3115.04 434.093Z" fill="#D9D9D9"/>
<path id="Rectangle 14_8" d="M3124 443L3115.04 444.485L3115.04 441.515L3119.52 442.258L3124 443Z" fill="#D9D9D9"/>
<path id="Rectangle 15_8" d="M3115.04 451.907L3113.54 443L3116.53 443L3115.78 447.454L3115.04 451.907Z" fill="#D9D9D9"/>
<path id="Rectangle 16_8" d="M3106.07 443L3115.04 441.515L3115.04 444.485L3110.56 443.742L3106.07 443Z" fill="#D9D9D9"/>
</g>
<g id="star11_4">
<path id="Rectangle 13_9" d="M2951.04 756.093L2952.53 765H2949.54L2950.29 760.546L2951.04 756.093Z" fill="#D9D9D9"/>
<path id="Rectangle 14_9" d="M2960 765L2951.04 766.485L2951.04 763.515L2955.52 764.258L2960 765Z" fill="#D9D9D9"/>
<path id="Rectangle 15_9" d="M2951.04 773.907L2949.54 765L2952.53 765L2951.78 769.454L2951.04 773.907Z" fill="#D9D9D9"/>
<path id="Rectangle 16_9" d="M2942.07 765L2951.04 763.515L2951.04 766.485L2946.56 765.742L2942.07 765Z" fill="#D9D9D9"/>
</g>
<g id="star11_5">
<path id="Rectangle 13_10" d="M1391.04 434.093L1392.53 443H1389.54L1390.29 438.546L1391.04 434.093Z" fill="#D9D9D9"/>
<path id="Rectangle 14_10" d="M1400 443L1391.04 444.485L1391.04 441.515L1395.52 442.258L1400 443Z" fill="#D9D9D9"/>
<path id="Rectangle 15_10" d="M1391.04 451.907L1389.54 443L1392.53 443L1391.78 447.454L1391.04 451.907Z" fill="#D9D9D9"/>
<path id="Rectangle 16_10" d="M1382.07 443L1391.04 441.515L1391.04 444.485L1386.56 443.742L1382.07 443Z" fill="#D9D9D9"/>
</g>
<g id="star11_6">
<path id="Rectangle 13_11" d="M1227.04 756.093L1228.53 765H1225.54L1226.29 760.546L1227.04 756.093Z" fill="#D9D9D9"/>
<path id="Rectangle 14_11" d="M1236 765L1227.04 766.485L1227.04 763.515L1231.52 764.258L1236 765Z" fill="#D9D9D9"/>
<path id="Rectangle 15_11" d="M1227.04 773.907L1225.54 765L1228.53 765L1227.78 769.454L1227.04 773.907Z" fill="#D9D9D9"/>
<path id="Rectangle 16_11" d="M1218.07 765L1227.04 763.515L1227.04 766.485L1222.56 765.742L1218.07 765Z" fill="#D9D9D9"/>
</g>
<g id="star11_7">
<path id="Rectangle 13_12" d="M2083.04 756.093L2084.53 765H2081.54L2082.29 760.546L2083.04 756.093Z" fill="#D9D9D9"/>
<path id="Rectangle 14_12" d="M2092 765L2083.04 766.485L2083.04 763.515L2087.52 764.258L2092 765Z" fill="#D9D9D9"/>
<path id="Rectangle 15_12" d="M2083.04 773.907L2081.54 765L2084.53 765L2083.78 769.454L2083.04 773.907Z" fill="#D9D9D9"/>
<path id="Rectangle 16_12" d="M2074.07 765L2083.04 763.515L2083.04 766.485L2078.56 765.742L2074.07 765Z" fill="#D9D9D9"/>
</g>
<g id="star11_8">
<path id="Rectangle 13_13" d="M3718.04 434.093L3719.53 443H3716.54L3717.29 438.546L3718.04 434.093Z" fill="#D9D9D9"/>
<path id="Rectangle 14_13" d="M3727 443L3718.04 444.485L3718.04 441.515L3722.52 442.258L3727 443Z" fill="#D9D9D9"/>
<path id="Rectangle 15_13" d="M3718.04 451.907L3716.54 443L3719.53 443L3718.78 447.454L3718.04 451.907Z" fill="#D9D9D9"/>
<path id="Rectangle 16_13" d="M3709.07 443L3718.04 441.515L3718.04 444.485L3713.56 443.742L3709.07 443Z" fill="#D9D9D9"/>
</g>
<g id="star11_9">
<path id="Rectangle 13_14" d="M3554.04 756.093L3555.53 765H3552.54L3553.29 760.546L3554.04 756.093Z" fill="#D9D9D9"/>
<path id="Rectangle 14_14" d="M3563 765L3554.04 766.485L3554.04 763.515L3558.52 764.258L3563 765Z" fill="#D9D9D9"/>
<path id="Rectangle 15_14" d="M3554.04 773.907L3552.54 765L3555.53 765L3554.78 769.454L3554.04 773.907Z" fill="#D9D9D9"/>
<path id="Rectangle 16_14" d="M3545.07 765L3554.04 763.515L3554.04 766.485L3549.56 765.742L3545.07 765Z" fill="#D9D9D9"/>
</g>
<g id="star12">
<path id="Rectangle 13_15" d="M682.037 44L683.043 50H681.031L681.534 47L682.037 44Z" fill="#D9D9D9"/>
<path id="Rectangle 14_15" d="M688.075 50L682.037 51L682.037 49L685.056 49.5L688.075 50Z" fill="#D9D9D9"/>
<path id="Rectangle 15_15" d="M682.037 56L681.031 50L683.043 50L682.54 53L682.037 56Z" fill="#D9D9D9"/>
<path id="Rectangle 16_15" d="M676 50L682.037 49L682.037 51L679.019 50.5L676 50Z" fill="#D9D9D9"/>
</g>
<g id="star12_2">
<path id="Rectangle 13_16" d="M3262.04 44L3263.04 50H3261.03L3261.53 47L3262.04 44Z" fill="#D9D9D9"/>
<path id="Rectangle 14_16" d="M3268.07 50L3262.04 51L3262.04 49L3265.06 49.5L3268.07 50Z" fill="#D9D9D9"/>
<path id="Rectangle 15_16" d="M3262.04 56L3261.03 50L3263.04 50L3262.54 53L3262.04 56Z" fill="#D9D9D9"/>
<path id="Rectangle 16_16" d="M3256 50L3262.04 49L3262.04 51L3259.02 50.5L3256 50Z" fill="#D9D9D9"/>
</g>
<g id="star12_3">
<path id="Rectangle 13_17" d="M1538.04 44L1539.04 50H1537.03L1537.53 47L1538.04 44Z" fill="#D9D9D9"/>
<path id="Rectangle 14_17" d="M1544.07 50L1538.04 51L1538.04 49L1541.06 49.5L1544.07 50Z" fill="#D9D9D9"/>
<path id="Rectangle 15_17" d="M1538.04 56L1537.03 50L1539.04 50L1538.54 53L1538.04 56Z" fill="#D9D9D9"/>
<path id="Rectangle 16_17" d="M1532 50L1538.04 49L1538.04 51L1535.02 50.5L1532 50Z" fill="#D9D9D9"/>
</g>
<g id="star12_4">
<path id="Rectangle 13_18" d="M2394.04 44L2395.04 50H2393.03L2393.53 47L2394.04 44Z" fill="#D9D9D9"/>
<path id="Rectangle 14_18" d="M2400.07 50L2394.04 51L2394.04 49L2397.06 49.5L2400.07 50Z" fill="#D9D9D9"/>
<path id="Rectangle 15_18" d="M2394.04 56L2393.03 50L2395.04 50L2394.54 53L2394.04 56Z" fill="#D9D9D9"/>
<path id="Rectangle 16_18" d="M2388 50L2394.04 49L2394.04 51L2391.02 50.5L2388 50Z" fill="#D9D9D9"/>
</g>
<g id="star12_5">
<path id="Rectangle 13_19" d="M3865.04 44L3866.04 50H3864.03L3864.53 47L3865.04 44Z" fill="#D9D9D9"/>
<path id="Rectangle 14_19" d="M3871.07 50L3865.04 51L3865.04 49L3868.06 49.5L3871.07 50Z" fill="#D9D9D9"/>
<path id="Rectangle 15_19" d="M3865.04 56L3864.03 50L3866.04 50L3865.54 53L3865.04 56Z" fill="#D9D9D9"/>
<path id="Rectangle 16_19" d="M3859 50L3865.04 49L3865.04 51L3862.02 50.5L3859 50Z" fill="#D9D9D9"/>
</g>
</g>
<defs>
<filter id="filter0_d_1_2" x="0" y="0" width="3910" height="814" filterUnits="userSpaceOnUse" color-interpolation-filters="sRGB">
<feFlood flood-opacity="0" result="BackgroundImageFix"/>
<feColorMatrix in="SourceAlpha" type="matrix" values="0 0 0 0 0 0 0 0 0 0 0 0 0 0 0 0 0 0 127 0" result="hardAlpha"/>
<feOffset dy="4"/>
<feGaussianBlur stdDeviation="2"/>
<feComposite in2="hardAlpha" operator="out"/>
<feColorMatrix type="matrix" values="0 0 0 0 0 0 0 0 0 0 0 0 0 0 0 0 0 0 0.25 0"/>
<feBlend mode="normal" in2="BackgroundImageFix" result="effect1_dropShadow_1_2"/>
<feBlend mode="normal" in="SourceGraphic" in2="effect1_dropShadow_1_2" result="shape"/>
</filter>
<linearGradient id="paint0_linear_1_2" x1="1951" y1="0" x2="1951" y2="806" gradientUnits="userSpaceOnUse">
<stop stop-color="#000133"/>
<stop offset="1" stop-color="#101151"/>
</linearGradient>
<clipPath id="clip0_1_2">
<rect width="3902" height="806" fill="white" transform="translate(4)"/>
</clipPath>
</defs>
</svg>
